<mxfile host="65bd71144e">
    <diagram id="ahBRnB6gHAQU_cezLhlP" name="Page-1">
        <mxGraphModel dx="875" dy="645" grid="1" gridSize="10" guides="1" tooltips="1" connect="1" arrows="1" fold="1" page="1" pageScale="1" pageWidth="1169" pageHeight="827" math="0" shadow="0">
            <root>
                <mxCell id="0"/>
                <mxCell id="1" parent="0"/>
                <mxCell id="11" value="CAS D'UTILISATION GENERAL" style="swimlane;fillColor=#1ba1e2;fontColor=#ffffff;strokeColor=#006EAF;" parent="1" vertex="1">
                    <mxGeometry x="240" y="80" width="520" height="430" as="geometry"/>
                </mxCell>
                <mxCell id="13" value="&lt;font face=&quot;Georgia&quot;&gt;Inscription&lt;/font&gt;" style="ellipse;whiteSpace=wrap;html=1;" parent="11" vertex="1">
                    <mxGeometry x="20" y="60" width="140" height="70" as="geometry"/>
                </mxCell>
                <mxCell id="14" value="&lt;font face=&quot;Georgia&quot;&gt;Connexion&lt;/font&gt;" style="ellipse;whiteSpace=wrap;html=1;" parent="11" vertex="1">
                    <mxGeometry x="190" y="340" width="140" height="70" as="geometry"/>
                </mxCell>
                <mxCell id="15" value="&lt;font face=&quot;Georgia&quot;&gt;Vote&lt;/font&gt;" style="ellipse;whiteSpace=wrap;html=1;" parent="11" vertex="1">
                    <mxGeometry x="40" y="250" width="140" height="70" as="geometry"/>
                </mxCell>
                <mxCell id="16" value="&lt;font face=&quot;Georgia&quot;&gt;Statistique&lt;/font&gt;" style="ellipse;whiteSpace=wrap;html=1;" parent="11" vertex="1">
                    <mxGeometry x="20" y="160" width="140" height="70" as="geometry"/>
                </mxCell>
                <mxCell id="18" value="&lt;font face=&quot;Georgia&quot;&gt;Gestion Des Candidats&lt;/font&gt;" style="ellipse;whiteSpace=wrap;html=1;" parent="11" vertex="1">
                    <mxGeometry x="360" y="60" width="140" height="70" as="geometry"/>
                </mxCell>
                <mxCell id="19" value="&lt;font face=&quot;Georgia&quot;&gt;Gestion Election&lt;/font&gt;" style="ellipse;whiteSpace=wrap;html=1;" parent="11" vertex="1">
                    <mxGeometry x="360" y="190" width="140" height="70" as="geometry"/>
                </mxCell>
                <mxCell id="34" value="&amp;lt;&amp;lt;include&amp;gt;&amp;gt;" style="html=1;verticalAlign=bottom;labelBackgroundColor=none;endArrow=open;endFill=0;dashed=1;fontFamily=Georgia;" parent="11" source="15" target="14" edge="1">
                    <mxGeometry x="0.4628" y="21" width="160" relative="1" as="geometry">
                        <mxPoint x="190" y="180" as="sourcePoint"/>
                        <mxPoint x="350" y="180" as="targetPoint"/>
                        <mxPoint x="1" as="offset"/>
                    </mxGeometry>
                </mxCell>
                <mxCell id="38" value="&amp;lt;&amp;lt;include&amp;gt;&amp;gt;" style="html=1;verticalAlign=bottom;labelBackgroundColor=none;endArrow=open;endFill=0;dashed=1;fontFamily=Georgia;entryX=0.5;entryY=0;entryDx=0;entryDy=0;exitX=0;exitY=0.5;exitDx=0;exitDy=0;" parent="11" source="19" target="14" edge="1">
                    <mxGeometry x="0.4628" y="21" width="160" relative="1" as="geometry">
                        <mxPoint x="260" y="190" as="sourcePoint"/>
                        <mxPoint x="320.3770920234865" y="303.1122552140919" as="targetPoint"/>
                        <mxPoint x="1" as="offset"/>
                        <Array as="points">
                            <mxPoint x="260" y="225"/>
                        </Array>
                    </mxGeometry>
                </mxCell>
                <mxCell id="39" value="&amp;lt;&amp;lt;include&amp;gt;&amp;gt;" style="html=1;verticalAlign=bottom;labelBackgroundColor=none;endArrow=open;endFill=0;dashed=1;fontFamily=Georgia;" parent="11" source="18" target="14" edge="1">
                    <mxGeometry x="-0.2566" y="20" width="160" relative="1" as="geometry">
                        <mxPoint x="310" y="60" as="sourcePoint"/>
                        <mxPoint x="345" y="391" as="targetPoint"/>
                        <mxPoint as="offset"/>
                        <Array as="points">
                            <mxPoint x="260" y="95"/>
                        </Array>
                    </mxGeometry>
                </mxCell>
                <mxCell id="27" style="edgeStyle=none;html=1;fontFamily=Georgia;" parent="1" source="20" target="13" edge="1">
                    <mxGeometry relative="1" as="geometry">
                        <Array as="points">
                            <mxPoint x="190" y="175"/>
                        </Array>
                    </mxGeometry>
                </mxCell>
                <mxCell id="20" value="Visiteur&lt;br&gt;" style="verticalLabelPosition=bottom;sketch=0;html=1;fillColor=#1ba1e2;verticalAlign=top;align=center;pointerEvents=1;shape=mxgraph.cisco_safe.design.actor_2;fontFamily=Georgia;fontColor=#ffffff;strokeColor=#006EAF;" parent="1" vertex="1">
                    <mxGeometry x="70" y="140" width="30" height="70" as="geometry"/>
                </mxCell>
                <mxCell id="32" style="edgeStyle=none;html=1;fontFamily=Georgia;" parent="1" source="22" target="15" edge="1">
                    <mxGeometry relative="1" as="geometry"/>
                </mxCell>
                <mxCell id="22" value="Electeur" style="verticalLabelPosition=bottom;sketch=0;html=1;fillColor=#A153A0;verticalAlign=top;align=center;pointerEvents=1;shape=mxgraph.cisco_safe.design.actor_2;fontFamily=Georgia;" parent="1" vertex="1">
                    <mxGeometry x="60" y="330" width="30" height="70" as="geometry"/>
                </mxCell>
                <mxCell id="35" style="edgeStyle=none;html=1;entryX=1;entryY=0.5;entryDx=0;entryDy=0;fontFamily=Georgia;" parent="1" source="23" target="18" edge="1">
                    <mxGeometry relative="1" as="geometry"/>
                </mxCell>
                <mxCell id="23" value="Gerant 1" style="verticalLabelPosition=bottom;sketch=0;html=1;fillColor=#f5f5f5;verticalAlign=top;align=center;pointerEvents=1;shape=mxgraph.cisco_safe.design.actor_2;fontFamily=Georgia;gradientColor=#b3b3b3;strokeColor=#666666;" parent="1" vertex="1">
                    <mxGeometry x="910" y="140" width="30" height="70" as="geometry"/>
                </mxCell>
                <mxCell id="36" style="edgeStyle=none;html=1;entryX=1;entryY=0.5;entryDx=0;entryDy=0;fontFamily=Georgia;" parent="1" source="24" target="19" edge="1">
                    <mxGeometry relative="1" as="geometry"/>
                </mxCell>
                <mxCell id="24" value="Gerant 2" style="verticalLabelPosition=bottom;sketch=0;html=1;fillColor=#f5f5f5;verticalAlign=top;align=center;pointerEvents=1;shape=mxgraph.cisco_safe.design.actor_2;fontFamily=Georgia;gradientColor=#b3b3b3;strokeColor=#666666;" parent="1" vertex="1">
                    <mxGeometry x="910" y="270" width="30" height="70" as="geometry"/>
                </mxCell>
                <mxCell id="28" style="edgeStyle=none;html=1;fontFamily=Georgia;" parent="1" edge="1">
                    <mxGeometry relative="1" as="geometry">
                        <mxPoint x="160" y="180" as="sourcePoint"/>
                        <mxPoint x="270" y="270" as="targetPoint"/>
                        <Array as="points">
                            <mxPoint x="160" y="220"/>
                            <mxPoint x="160" y="270"/>
                        </Array>
                    </mxGeometry>
                </mxCell>
                <mxCell id="33" style="edgeStyle=none;html=1;fontFamily=Georgia;entryX=0.05;entryY=0.729;entryDx=0;entryDy=0;entryPerimeter=0;" parent="1" target="16" edge="1">
                    <mxGeometry relative="1" as="geometry">
                        <mxPoint x="170" y="365" as="sourcePoint"/>
                        <mxPoint x="260" y="290" as="targetPoint"/>
                        <Array as="points">
                            <mxPoint x="170" y="290"/>
                        </Array>
                    </mxGeometry>
                </mxCell>
                <mxCell id="40" style="edgeStyle=none;html=1;entryX=1.133;entryY=0.543;entryDx=0;entryDy=0;entryPerimeter=0;fontFamily=Georgia;" parent="1" source="37" target="23" edge="1">
                    <mxGeometry relative="1" as="geometry"/>
                </mxCell>
                <mxCell id="41" style="edgeStyle=none;html=1;entryX=1.067;entryY=0.643;entryDx=0;entryDy=0;entryPerimeter=0;fontFamily=Georgia;" parent="1" source="37" target="24" edge="1">
                    <mxGeometry relative="1" as="geometry"/>
                </mxCell>
                <mxCell id="37" value="Administrateur&lt;br&gt;" style="verticalLabelPosition=bottom;sketch=0;html=1;fillColor=#dae8fc;verticalAlign=top;align=center;pointerEvents=1;shape=mxgraph.cisco_safe.design.actor_2;fontFamily=Georgia;gradientColor=#7ea6e0;strokeColor=#6c8ebf;" parent="1" vertex="1">
                    <mxGeometry x="1080" y="170" width="30" height="70" as="geometry"/>
                </mxCell>
            </root>
        </mxGraphModel>
    </diagram>
</mxfile>